<?xml version="1.0" encoding="UTF-8" standalone="no"?>
<!-- Created with Inkscape (http://www.inkscape.org/) -->
<svg
   xmlns:svg="http://www.w3.org/2000/svg"
   xmlns="http://www.w3.org/2000/svg"
   version="1.0"
   width="24.886"
   height="49.174999"
   id="svg1622">
  <defs
     id="defs1625" />
  <g
     transform="translate(-519.7849,-288.4558)"
     id="g16506">
    <path
       d="M 524.20493,327.44378 C 520.80909,329.26375 518.99965,332.55833 520.11271,335.03674 C 521.29997,337.68038 525.37972,338.42646 529.21929,336.70211 C 533.05885,334.97775 535.21145,331.43271 534.02419,328.78908 C 532.83692,326.14544 528.75718,325.39936 524.91761,327.12371 C 524.67764,327.23148 524.43133,327.32245 524.20493,327.44378 z "
       style="opacity:0.9;fill:#000000;fill-opacity:1;fill-rule:evenodd;stroke:none;stroke-width:0.2;stroke-miterlimit:4;stroke-dashoffset:0;stroke-opacity:1"
       id="path16453" />
    <path
       d="M 533.82243,330.21829 L 533.82243,289.2061"
       style="fill:none;fill-opacity:0.75;fill-rule:evenodd;stroke:#000000;stroke-width:1.5;stroke-linecap:butt;stroke-linejoin:miter;stroke-miterlimit:4;stroke-dasharray:none;stroke-opacity:1"
       id="path16455" />
    <path
       d="M 533.81778,297.59056 C 533.25528,303.90306 538.66033,306.1643 541.31778,309.09056 C 543.84374,311.87203 544.76645,315.08028 544.66326,318.08616 C 544.63571,318.88873 544.41783,322.36627 542.04881,325.85288 C 545.21673,317.10577 542.26728,313.59482 539.38585,310.8013 C 535.89591,307.41784 533.29973,304.22912 533.81778,297.59056 z "
       style="fill:#000000;fill-opacity:1;fill-rule:evenodd;stroke:none;stroke-width:1px;stroke-linecap:butt;stroke-linejoin:miter;stroke-opacity:1"
       id="path16457" />
    <path
       d="M 533.08432,302.37457 C 532.52182,308.68707 537.92687,310.94831 540.58432,313.87457 C 543.11028,316.65604 544.03299,319.86429 543.9298,322.87017 C 543.90225,323.67274 543.68437,327.15028 541.31535,330.63689 C 544.48327,321.88978 541.53382,318.37883 538.65239,315.58531 C 535.16245,312.20185 532.56627,309.01313 533.08432,302.37457 z "
       style="fill:#000000;fill-opacity:1;fill-rule:evenodd;stroke:none;stroke-width:1px;stroke-linecap:butt;stroke-linejoin:miter;stroke-opacity:1"
       id="path16462" />
    <path
       d="M 533.59854,290.64238 C 533.03604,296.95488 538.44109,299.21612 541.09854,302.14238 C 543.6245,304.92385 544.54721,308.1321 544.44402,311.13798 C 544.41647,311.94055 544.19859,315.41809 541.82957,318.9047 C 544.99749,310.15759 542.04804,306.64664 539.16661,303.85312 C 535.67667,300.46966 533.08049,297.28094 533.59854,290.64238 z "
       style="fill:#000000;fill-opacity:1;fill-rule:evenodd;stroke:none;stroke-width:1px;stroke-linecap:butt;stroke-linejoin:miter;stroke-opacity:1"
       id="path16504" />
  </g>
</svg>
