<?xml version="1.0" encoding="UTF-8" standalone="no"?><!-- Generator: Gravit.io --><svg xmlns="http://www.w3.org/2000/svg" xmlns:xlink="http://www.w3.org/1999/xlink" style="isolation:isolate" viewBox="565 92 863 308.906071" width="863pt" height="308.906071pt"><path d=" M 861 347 C 865.439 343.563 868.498 340.393 873.172 334.88 C 881.263 325.336 886.631 315.806 889.988 303.245 C 890.366 302.015 890.707 300.779 891.01 299.537 C 891.744 296.636 892.273 293.716 892.613 290.788 C 893.303 281.234 892.772 269.99 889.918 259.156 C 889.192 256.012 888.499 253.072 887.819 250.267 C 884.9 237.251 882.08 227.289 877.299 213.811 C 877.016 213.052 876.652 211.912 876.36 211.153 C 866.262 184.878 855.815 166.939 841.044 153.581 C 820.908 134.567 791.25 123.935 759.593 133.643 C 746.916 137.531 736.354 144.116 729.352 151.254 C 725.273 155.338 721.296 160.404 718.208 165.338 C 710.377 177.936 706.607 187.484 705.349 200.906 C 705.073 205.64 704.76 211.393 705.349 216.906 C 706.325 223.083 706.918 228.259 708.174 234.216 C 711.677 252.191 716.654 268.597 720.613 280.913 C 720.658 281.053 720.697 281.196 720.739 281.337 C 722.63 287.657 724.907 293.677 727.516 299.375 C 729.66 304.297 732.315 309.92 734.879 314.349 C 736.602 317.459 738.417 320.488 740.291 323.349 C 743.507 328.293 746.564 331.736 750.038 335.677 C 755.534 341.719 761.307 346.605 767.279 350.473 C 776.651 356.191 786.329 359.647 796.045 361.317 C 813.87 364.994 833.773 361.855 844.266 356.878 C 851.222 353.579 854.953 351.682 861 347 L 861 347 L 861 347 Z  M 1119.955 243.453 C 1119.955 209.774 1147.298 182.43 1180.977 182.43 C 1214.657 182.43 1242 209.774 1242 243.453 C 1242 277.132 1214.657 304.476 1180.977 304.476 C 1147.298 304.476 1119.955 277.132 1119.955 243.453 L 1119.955 243.453 Z  M 717.157 390.328 C 650.319 374.47 602.61 340.231 581.87 300.089 C 572.117 281.931 566.34 262.133 565.04 241.523 C 565.02 241.21 565.022 240.931 565.017 240.634 C 564.625 217.614 570.795 195.872 589.669 171.32 C 606.977 148.68 633.475 129.285 667.737 114.388 C 703.963 98.573 746.902 90.736 793.173 92.166 C 802.584 92.457 811.862 93.118 820.977 94.126 C 830.884 95.138 840.597 96.566 850.075 98.381 C 868.492 101.409 886.026 105.995 902.384 111.933 C 918.469 117.539 933.227 124.268 947.739 132.958 C 960.573 140.644 970.579 148.192 980.4 157.322 C 985.321 162.084 989.894 167.043 994.088 172.179 C 997.396 176.363 1000.471 180.632 1003.298 184.975 C 1006.437 190.026 1009.208 194.869 1011.793 200.353 C 1020.259 218.31 1024.713 238.693 1025.174 255.941 C 1025.186 290.107 1007.833 320.832 978.813 345.069 C 957.427 363.703 931.811 377.613 898.646 388.012 C 873.937 395.76 848.18 399.943 822.601 400.684 C 814.13 401.113 807.59 400.803 798.976 400.721 C 769.949 399.785 742.439 396.194 717.157 390.328 L 717.157 390.328 L 717.157 390.328 Z  M 1305.955 243.453 C 1305.955 209.774 1333.298 182.43 1366.977 182.43 C 1400.657 182.43 1428 209.774 1428 243.453 C 1428 277.132 1400.657 304.476 1366.977 304.476 C 1333.298 304.476 1305.955 277.132 1305.955 243.453 Z " fill-rule="evenodd" fill="rgb(0,0,0)"/></svg>