<?xml version="1.0" encoding="UTF-8" standalone="no"?><!-- Generator: Gravit.io --><svg xmlns="http://www.w3.org/2000/svg" xmlns:xlink="http://www.w3.org/1999/xlink" style="isolation:isolate" viewBox="584 171 460.17404 308.906071" width="460.17404pt" height="308.906071pt"><path d=" M 736.157 469.328 C 669.319 453.47 621.61 419.231 600.87 379.089 C 591.117 360.931 585.34 341.133 584.04 320.523 C 584.02 320.21 584.022 319.931 584.017 319.634 C 583.625 296.614 589.795 274.872 608.669 250.32 C 625.977 227.68 652.475 208.285 686.737 193.388 C 722.963 177.573 765.902 169.736 812.173 171.166 C 821.584 171.457 830.862 172.118 839.977 173.126 C 849.884 174.138 859.597 175.566 869.075 177.381 C 887.492 180.409 905.026 184.995 921.384 190.933 C 937.469 196.539 952.227 203.268 966.739 211.958 C 979.573 219.644 989.579 227.192 999.4 236.322 C 1004.321 241.084 1008.894 246.043 1013.088 251.179 C 1016.396 255.363 1019.471 259.632 1022.298 263.975 C 1025.437 269.026 1028.208 273.869 1030.793 279.353 C 1039.259 297.31 1043.713 317.693 1044.174 334.941 C 1044.186 369.107 1026.833 399.832 997.813 424.069 C 976.427 442.703 950.811 456.613 917.646 467.012 C 892.937 474.76 867.18 478.943 841.601 479.684 C 833.13 480.113 826.59 479.803 817.976 479.721 C 788.949 478.785 761.439 475.194 736.157 469.328 Z  M 880 426 C 884.439 422.563 887.498 419.393 892.172 413.88 C 900.263 404.336 905.631 394.806 908.988 382.245 C 909.366 381.015 909.707 379.779 910.01 378.537 C 910.744 375.636 911.273 372.716 911.613 369.788 C 912.303 360.234 911.772 348.99 908.918 338.156 C 908.192 335.012 907.499 332.072 906.819 329.267 C 903.9 316.251 901.08 306.289 896.299 292.811 C 896.016 292.052 895.652 290.912 895.36 290.153 C 885.262 263.878 874.815 245.939 860.044 232.581 C 839.908 213.567 810.25 202.935 778.593 212.643 C 765.916 216.531 755.354 223.116 748.352 230.254 C 744.273 234.338 740.296 239.404 737.208 244.338 C 729.377 256.936 725.607 266.484 724.349 279.906 C 724.073 284.64 723.76 290.393 724.349 295.906 C 725.325 302.083 725.918 307.259 727.174 313.216 C 730.677 331.191 735.654 347.597 739.613 359.913 C 739.658 360.053 739.697 360.196 739.739 360.337 C 741.63 366.657 743.907 372.677 746.516 378.375 C 748.66 383.297 751.315 388.92 753.879 393.349 C 755.602 396.459 757.417 399.488 759.291 402.349 C 762.507 407.293 765.564 410.736 769.038 414.677 C 774.534 420.719 780.307 425.605 786.279 429.473 C 795.651 435.191 805.329 438.647 815.045 440.317 C 832.87 443.994 852.773 440.855 863.266 435.878 C 870.222 432.579 873.953 430.682 880 426 Z " fill-rule="evenodd" fill="rgb(0,0,0)"/></svg>